<svg xmlns="http://www.w3.org/2000/svg" width="28.07" height="28" viewBox="0 0 28.07 28">
  <path id="error" d="M30.813,12.519a14.8,14.8,0,0,0-3-4.469,14.366,14.366,0,0,0-4.469-3A12.745,12.745,0,0,0,17.965,4a12.892,12.892,0,0,0-5.446,1.117A14.7,14.7,0,0,0,8.12,8.05a14.366,14.366,0,0,0-3,4.469A13.117,13.117,0,0,0,4,17.965a12.892,12.892,0,0,0,1.117,5.446,15.23,15.23,0,0,0,3,4.469,14.366,14.366,0,0,0,4.469,3A13.117,13.117,0,0,0,18.035,32a12.892,12.892,0,0,0,5.446-1.117,16.2,16.2,0,0,0,4.469-3,14.366,14.366,0,0,0,3-4.469,13.117,13.117,0,0,0,1.117-5.446A15.547,15.547,0,0,0,30.813,12.519Zm-14.384-3H19.5V19.571H16.429Zm1.536,16.479A1.952,1.952,0,0,1,16.01,24.04a1.955,1.955,0,1,1,3.91,0A1.952,1.952,0,0,1,17.965,25.995Z" transform="translate(-4 -4)" fill="#fff"/>
</svg>
