<?xml version="1.0" encoding="utf-8"?>
<!-- Generator: Adobe Illustrator 26.5.0, SVG Export Plug-In . SVG Version: 6.00 Build 0)  -->
<svg version="1.1" id="Layer_1" xmlns="http://www.w3.org/2000/svg" xmlns:xlink="http://www.w3.org/1999/xlink" x="0px" y="0px"
	 viewBox="0 0 30 30" style="enable-background:new 0 0 30 30;" xml:space="preserve">
<style type="text/css">
	.st0{fill:#1F1F24;}
	.st1{fill:#FFFFFF;}
</style>
<path id="calendar" class="st0" d="M3.3,27.7V4.4h3.9V2.5h2v1.9H20V2.5h2v1.9H26v23.3L3.3,27.7z M5.2,25.9h18.9V12.3H5.2V25.9z"/>
<rect x="5.2" y="12.3" class="st1" width="18.9" height="13.5"/>
<g>
	<path class="st0" d="M15.1,24.7c-0.9,0-1.7-0.1-2.4-0.4c-0.8-0.3-1.5-0.7-2.2-1.3l1-1.4c0.7,0.6,1.3,1,1.9,1.2
		c0.6,0.2,1.1,0.4,1.8,0.4c0.5,0,0.9-0.1,1.3-0.2c0.4-0.1,0.6-0.4,0.9-0.6c0.2-0.3,0.3-0.6,0.3-0.9c0-0.4-0.1-0.8-0.4-1
		c-0.3-0.2-0.8-0.4-1.5-0.5l-2-0.4c-0.9-0.2-1.6-0.5-2.1-0.9c-0.5-0.5-0.7-1.1-0.7-1.8c0-0.7,0.2-1.2,0.5-1.7
		c0.3-0.5,0.8-0.9,1.4-1.1c0.6-0.3,1.3-0.4,2.1-0.4s1.6,0.1,2.4,0.4c0.7,0.2,1.4,0.6,2,1l-1,1.4c-0.6-0.4-1.1-0.7-1.7-0.9
		C16,15.1,15.4,15,14.8,15c-0.4,0-0.8,0.1-1.1,0.2c-0.3,0.1-0.6,0.3-0.8,0.6c-0.2,0.2-0.3,0.5-0.3,0.8c0,0.4,0.1,0.7,0.4,0.9
		c0.3,0.2,0.7,0.4,1.3,0.5l2,0.3c1.1,0.2,1.9,0.5,2.5,1s0.8,1.2,0.8,2c0,0.7-0.2,1.3-0.6,1.8c-0.4,0.5-0.9,0.9-1.5,1.2
		C16.7,24.6,16,24.7,15.1,24.7z"/>
</g>
</svg>
