<svg xmlns="http://www.w3.org/2000/svg" width="22.124" height="38.501" viewBox="0 0 22.124 38.501">
  <g id="Group_194" data-name="Group 194" transform="translate(-18.66)">
    <path id="Path_5" data-name="Path 5" d="M36.149,30.61l-3.68-.065a.647.647,0,0,1-.588-.512l-1.009-6.416a1.205,1.205,0,0,0-.12-.379,1.289,1.289,0,0,0-1.2-.827l-5.924.257a1.369,1.369,0,0,0-1.3,1.354l0,12.986c-.007.625-.036,1.532-.068,2.109l-.179,3.165a4.9,4.9,0,0,1-.6,1.905l-2.6,4.223a1.524,1.524,0,0,0,.558,2.141l.582.324a1.608,1.608,0,0,0,.785.2,1.649,1.649,0,0,0,1.4-.771l2.6-4.223a6.729,6.729,0,0,0,.807-2.277l.749-5.79.811-.079,3.486,5.382a5.005,5.005,0,0,1,.65,1.894l.394,4.531a1.264,1.264,0,0,0,1.267,1.218,1.466,1.466,0,0,0,.491-.087l.628-.222a1.99,1.99,0,0,0,1.267-1.969l-.394-4.53a7.948,7.948,0,0,0-.63-2.318L30.992,34.8c-.008-.017-.018-.032-.027-.048L30.951,33.5l5.347-.22A1.277,1.277,0,0,0,37.525,31.9,1.433,1.433,0,0,0,36.149,30.61Z" transform="translate(0 -12.576)" fill="#fff"/>
    <path id="Path_6" data-name="Path 6" d="M28.89,8.491a4.246,4.246,0,1,0-4-2.83A4.23,4.23,0,0,0,28.89,8.491Z" transform="translate(-3.357)" fill="#fff"/>
    <path id="Path_7" data-name="Path 7" d="M57.748,21.362a1.327,1.327,0,0,0-1.4-1.225l-5.6.373a1.316,1.316,0,0,0-1.223,1.4l.349,5.019a1.324,1.324,0,0,0,1.316,1.228c.029,0,.058,0,.088,0l5.6-.373a1.316,1.316,0,0,0,1.223-1.4Z" transform="translate(-17.317 -11.299)" fill="#fff"/>
  </g>
</svg>
