<svg xmlns="http://www.w3.org/2000/svg" width="16.48" height="16.313" viewBox="0 0 16.48 16.313">
  <path id="refresh" d="M14.968,23.213a7.882,7.882,0,0,1-5.792-2.376A7.853,7.853,0,0,1,6.8,15.068a7.893,7.893,0,0,1,2.376-5.78A7.862,7.862,0,0,1,14.968,6.9a8.184,8.184,0,0,1,3.8.86,8.278,8.278,0,0,1,2.866,2.46V6.9H23.28v6.807H16.449V12.083h3.869a7.683,7.683,0,0,0-2.257-2.2,5.724,5.724,0,0,0-3.093-.812,5.933,5.933,0,0,0-5.995,5.995,5.745,5.745,0,0,0,1.744,4.239,5.805,5.805,0,0,0,4.251,1.732,6.161,6.161,0,0,0,5.684-3.893H22.9a8.223,8.223,0,0,1-7.929,6.067Z" transform="translate(-6.8 -6.9)" fill="#fff"/>
</svg>
