<svg xmlns="http://www.w3.org/2000/svg" width="16.849" height="16.85" viewBox="0 0 16.849 16.85">
  <path id="search" d="M6.56,22.15l5.961-5.961a4.959,4.959,0,0,0,1.608.877,6.046,6.046,0,0,0,1.946.315,6.011,6.011,0,0,0,6.074-6.051A5.991,5.991,0,0,0,16.12,5.3a6.01,6.01,0,0,0-6.051,6.029,5.64,5.64,0,0,0,1.237,3.6L5.3,20.89ZM16.1,15.626a4.11,4.11,0,0,1-3.037-1.249,4.166,4.166,0,0,1-1.237-3.048,4.166,4.166,0,0,1,1.237-3.048A4.11,4.11,0,0,1,16.1,7.032a4.245,4.245,0,0,1,4.319,4.3,4.245,4.245,0,0,1-4.319,4.3Z" transform="translate(-5.3 -5.3)" fill="#898989"/>
</svg>
