<svg xmlns="http://www.w3.org/2000/svg" width="40" height="40" viewBox="0 0 40 40">
  <path id="schedule_FILL1_wght400_GRAD0_opsz48" d="M31.35,33.65,33.6,31.4l-7.95-8V13.35h-3V24.6ZM24,44a19.352,19.352,0,0,1-7.75-1.575A20.15,20.15,0,0,1,5.575,31.75a19.855,19.855,0,0,1,0-15.5A20.15,20.15,0,0,1,16.25,5.575a19.855,19.855,0,0,1,15.5,0A20.15,20.15,0,0,1,42.425,16.25a19.855,19.855,0,0,1,0,15.5A20.15,20.15,0,0,1,31.75,42.425,19.352,19.352,0,0,1,24,44Z" transform="translate(-4 -4)" fill="#fff"/>
</svg>
