<svg xmlns="http://www.w3.org/2000/svg" width="31.369" height="29.801" viewBox="0 0 31.369 29.801">
  <path id="shift" d="M6.353,33.8A2.257,2.257,0,0,1,4.706,33.1,2.257,2.257,0,0,1,4,31.448V12.627a2.257,2.257,0,0,1,.706-1.647,2.257,2.257,0,0,1,1.647-.706h7.058V6.353a2.257,2.257,0,0,1,.706-1.647A2.257,2.257,0,0,1,15.763,4h7.842a2.257,2.257,0,0,1,1.647.706,2.257,2.257,0,0,1,.706,1.647v3.921h7.058a2.412,2.412,0,0,1,2.353,2.353V31.448A2.412,2.412,0,0,1,33.017,33.8Zm9.411-23.527h7.842V6.353H15.763Z" transform="translate(-4 -4)" fill="#fff"/>
</svg>
