<svg xmlns="http://www.w3.org/2000/svg" width="21.445" height="31.631" viewBox="0 0 21.445 31.631">
  <g id="Group_196" data-name="Group 196" transform="translate(-5.093)">
    <g id="Group_195" data-name="Group 195">
      <circle id="Ellipse_1" data-name="Ellipse 1" cx="3.246" cy="3.246" r="3.246" transform="translate(12.572 0)" fill="#fff"/>
      <path id="Path_8" data-name="Path 8" d="M20.894,20.121V8.375a1.406,1.406,0,0,0-1.406-1.4H12.112v.005a1.4,1.4,0,0,0-1.372,1.4V20.121a1.4,1.4,0,0,0,2.251,1.115v8.99a1.4,1.4,0,1,0,2.81,0h.038a1.4,1.4,0,1,0,2.809,0V21.24a1.4,1.4,0,0,0,2.246-1.119Z" fill="#fff"/>
      <path id="Path_9" data-name="Path 9" d="M9.763,5.968a2.967,2.967,0,0,0,2.207-.992,4.093,4.093,0,0,1-.4-1.729,4.193,4.193,0,0,1,.557-2.061A2.979,2.979,0,1,0,9.763,5.968Z" fill="#fff"/>
      <path id="Path_10" data-name="Path 10" d="M9.738,20.121V8.375a2.4,2.4,0,0,1,1.043-1.967H6.355v.005A1.287,1.287,0,0,0,5.093,7.7V18.5a1.284,1.284,0,0,0,2.069,1.024v8.267a1.292,1.292,0,0,0,2.584,0h.036a1.291,1.291,0,0,0,2.209.909V22.521A2.409,2.409,0,0,1,9.738,20.121Z" fill="#fff"/>
      <path id="Path_11" data-name="Path 11" d="M19.664,4.98A2.979,2.979,0,1,0,21.868,0a2.967,2.967,0,0,0-2.363,1.182,4.187,4.187,0,0,1,.559,2.064A4.124,4.124,0,0,1,19.664,4.98Z" fill="#fff"/>
      <path id="Path_12" data-name="Path 12" d="M25.276,6.412V6.407H20.862a2.4,2.4,0,0,1,1.029,1.967V20.121a2.411,2.411,0,0,1-2.246,2.4V28.7a1.293,1.293,0,0,0,2.2-.915h.035a1.292,1.292,0,0,0,2.584,0V19.521A1.284,1.284,0,0,0,26.538,18.5V7.7A1.287,1.287,0,0,0,25.276,6.412Z" fill="#fff"/>
    </g>
  </g>
</svg>
